<svg xmlns="http://www.w3.org/2000/svg" xmlns:xlink="http://www.w3.org/1999/xlink" width="364" height="250" viewBox="0 0 364 250">
  <defs>
    <clipPath id="clip-Boeing_Logo">
      <rect width="364" height="250"/>
    </clipPath>
  </defs>
  <g id="Boeing_Logo" clip-path="url(#clip-Boeing_Logo)">
    <g id="c6cEsb" transform="translate(12.595 86.673)">
      <path id="Path_2" data-name="Path 2" d="M27.418,65.184a.972.972,0,0,1-.062.223A32.8,32.8,0,0,1,14.5,76.533a12.321,12.321,0,0,1-5.537,1.23,5.412,5.412,0,0,1-5.1-3.566,12.419,12.419,0,0,1-.687-6.544A44.337,44.337,0,0,1,7.242,54.324,1.016,1.016,0,0,0,7.1,53.085,27.059,27.059,0,0,1,22.4,9.524a26.354,26.354,0,0,1,17.35,2.113,1.15,1.15,0,0,0,1.48-.169A117.688,117.688,0,0,1,55.493,1.25a2.461,2.461,0,0,1,.785-.33c-1.783,1.632-3.646,3.245-5.456,4.895-2.523,2.3-4.957,4.69-7.355,7.132-.437.437-.4.606.089.954a26.586,26.586,0,0,1,11.26,18.723,25.748,25.748,0,0,1-1.961,14.015c-.312.7-.16.892.517,1.159a92.847,92.847,0,0,0,18.66,4.672c5.67.892,11.376,1.337,17.1,1.783,1.471.1,2.924.285,4.4.446a2.585,2.585,0,0,1,1.284.4c-.152.267-.357.178-.517.187-8.648.276-17.3.508-25.944.829-6.615.25-13.222.481-19.81,1.016-.722.062-.793-.428-1.016-.82-.517-.954-.508-.954-1.293-.232a27.023,27.023,0,0,1-33.558,2.149c-.58-.4-.722-.33-.945.312a25.071,25.071,0,0,0-1.676,8.024,8.247,8.247,0,0,0,.062,1.293c.49,3.165,2.675,4.458,6.027,3.709A22.592,22.592,0,0,0,23.548,68q1.7-1.186,3.308-2.5A.751.751,0,0,1,27.418,65.184Zm11.029-26,.1-.107.3.223a44.311,44.311,0,0,0,9.968,6.482c.6.294.785.187,1.034-.392A23.858,23.858,0,0,0,41.237,16.21c-.481-.321-.7-.25-1.07.143-4.137,4.458-8.1,9.112-11.8,13.962A128.911,128.911,0,0,0,13.6,53.977a.776.776,0,0,0,.294,1.177,23.876,23.876,0,0,0,30.705-2.1,1.284,1.284,0,0,0,.285-1.863C42.7,47.21,40.595,43.189,38.446,39.186Zm-.633-24.821A23.707,23.707,0,0,0,9.123,50.33,131.079,131.079,0,0,1,37.813,14.365Z" transform="translate(-1 -0.92)" fill="#fff"/>
      <path id="Path_3" data-name="Path 3" d="M135.3,33.4a3.477,3.477,0,0,1,1.025,1.614,3.085,3.085,0,0,1-.571,2.675c-.99,1.293-1.944,2.612-2.942,3.887a12.535,12.535,0,0,1-10.235,5.091H91.2c-.169,0-.366.062-.517-.1,0-.285.223-.446.366-.642q10.039-13.373,20.078-26.675a1.257,1.257,0,0,1,1.15-.58h29.992a3.727,3.727,0,0,1,3.611,2.077,3.664,3.664,0,0,1-.481,4.128q-1.293,1.7-2.568,3.406a12.847,12.847,0,0,1-7.186,4.948A3.261,3.261,0,0,0,135.3,33.4Zm-25.115,7.418H116.7a3.067,3.067,0,0,0,2.389-1.275c.606-.793,1.213-1.6,1.783-2.407a1.025,1.025,0,0,0,.187-1.15,1.007,1.007,0,0,0-1.025-.544h-5.43a.633.633,0,0,0-.6.25C112.8,37.347,111.542,39.005,110.187,40.815Zm8.5-11.3h6.8a2.755,2.755,0,0,0,2.033-1.159c.544-.678,1.061-1.391,1.587-2.1a.99.99,0,0,0,.178-1.141,1.016,1.016,0,0,0-1.025-.544H122.91a.776.776,0,0,0-.722.321c-1.123,1.48-2.265,2.978-3.5,4.618Z" transform="translate(-10.724 -2.844)" fill="#fff"/>
      <path id="Path_4" data-name="Path 4" d="M163.751,46.684H151.037a3.753,3.753,0,0,1-3.736-5.046,5.144,5.144,0,0,1,.793-1.328L160.31,24.1a12.9,12.9,0,0,1,10.868-5.4h23.715a3.825,3.825,0,0,1,3.192,6.392Q192,33.114,185.96,41.138a13.079,13.079,0,0,1-11.127,5.519C171.142,46.666,167.442,46.684,163.751,46.684Zm3.459-5.858h2.015a3.3,3.3,0,0,0,2.675-1.311l9.985-13.231a1.061,1.061,0,0,0,.187-1.221,1.034,1.034,0,0,0-1.052-.508h-4.03a3.245,3.245,0,0,0-2.746,1.328q-4.948,6.606-9.977,13.231a1.052,1.052,0,0,0-.178,1.159,1.016,1.016,0,0,0,1.025.553Z" transform="translate(-16.839 -2.846)" fill="#fff"/>
      <path id="Path_5" data-name="Path 5" d="M356.019,28.166l1.435-1.908a1.025,1.025,0,0,0,.214-1.141,1.043,1.043,0,0,0-1.088-.571h-4.11a3.219,3.219,0,0,0-2.675,1.328q-5,6.606-9.977,13.24a.981.981,0,0,0-.187,1.141,1.043,1.043,0,0,0,1.025.562h4.262a3.388,3.388,0,0,0,2.675-1.48c1.783-2.4,3.611-4.779,5.4-7.177a1.141,1.141,0,0,1,1-.58h18.036c.1.285-.116.4-.232.553-1.186,1.6-2.4,3.174-3.566,4.779a1.043,1.043,0,0,1-1.1.526h-.152a3.691,3.691,0,0,0-4.342,2.122,14.908,14.908,0,0,1-1.97,2.586,12.607,12.607,0,0,1-9.807,4.458H326.6a3.771,3.771,0,0,1-3.085-6.187c4.172-5.528,8.309-11.073,12.482-16.583a12.642,12.642,0,0,1,10.485-5.225h24.179a3.709,3.709,0,0,1,3.566,2.042,3.664,3.664,0,0,1-.446,4.137c-.767,1.007-1.525,2.015-2.282,3.031a.776.776,0,0,1-.686.392H356.242C356.2,28.265,356.153,28.229,356.019,28.166Z" transform="translate(-35.877 -2.837)" fill="#fff"/>
      <path id="Path_6" data-name="Path 6" d="M288.756,32.8c-.33.125-.437.4-.606.624q-4.77,6.339-9.549,12.687a1.257,1.257,0,0,1-1.15.588h-9.2a1.087,1.087,0,0,1,.348-.7q10.039-13.373,20.078-26.684a1.266,1.266,0,0,1,1.15-.58h10.547c.553,0,.74.178.892.7.963,4.253,1.961,8.5,2.942,12.74a2.207,2.207,0,0,0,.169.606c.321-.1.419-.392.579-.606,3.138-4.164,6.294-8.318,9.406-12.482a1.953,1.953,0,0,1,1.828-.892c2.675.062,5.349,0,8.024,0h.758a1.062,1.062,0,0,1-.366.722Q314.566,32.888,304.519,46.2a1.337,1.337,0,0,1-1.221.6H293.062c-.811,0-1.141-.187-1.32-1.025-.892-4.11-1.863-8.2-2.808-12.295A6.212,6.212,0,0,0,288.756,32.8Z" transform="translate(-29.98 -2.851)" fill="#fff"/>
      <path id="Path_7" data-name="Path 7" d="M215.734,40.846h15.05c.045.321-.187.455-.312.633-1.034,1.391-2.14,2.728-3.094,4.172a2.238,2.238,0,0,1-2.166,1.052H196.12a1.062,1.062,0,0,1,.339-.713L216.6,19.243a1.079,1.079,0,0,1,.892-.544H247.18a1.694,1.694,0,0,1,.223,0c.1.259-.116.383-.232.535-1.186,1.6-2.4,3.174-3.566,4.779a1.213,1.213,0,0,1-1.1.535H228.555a1.257,1.257,0,0,0-1.15.58c-1.043,1.435-2.131,2.844-3.29,4.386h15.023c.152.2.1.285,0,.366-1.3,1.739-2.621,3.459-3.9,5.216-.276.374-.606.33-.954.33H220.406a1.364,1.364,0,0,0-1.266.642c-.963,1.346-1.979,2.675-2.969,3.976A1.6,1.6,0,0,0,215.734,40.846Z" transform="translate(-22.158 -2.848)" fill="#fff"/>
      <path id="Path_8" data-name="Path 8" d="M240,46.6l4.921-6.544q7.81-10.36,15.6-20.747a1.48,1.48,0,0,1,1.346-.651h14.247c.062.33-.16.481-.285.651L255.656,46.146a1.079,1.079,0,0,1-.936.544H240.455C240.366,46.681,240.267,46.654,240,46.6Z" transform="translate(-26.917 -2.843)" fill="#fff"/>
    </g>
  </g>
</svg>
