<svg xmlns="http://www.w3.org/2000/svg" xmlns:xlink="http://www.w3.org/1999/xlink" width="364" height="250" viewBox="0 0 364 250">
  <defs>
    <clipPath id="clip-Chipotle_Logo">
      <rect width="364" height="250"/>
    </clipPath>
  </defs>
  <g id="Chipotle_Logo" clip-path="url(#clip-Chipotle_Logo)">
    <g id="EZHx5g" transform="translate(61.597 4.575)">
      <path id="Path_9" data-name="Path 9" d="M241.812,121.406A120.406,120.406,0,1,1,121.9,1C188.088,1.264,241.915,55.125,241.812,121.406Zm-6.364,0A114.042,114.042,0,1,0,121.28,235.413,114.042,114.042,0,0,0,235.448,121.406Z" transform="translate(-1 -0.98)" fill="#fff"/>
      <path id="Path_10" data-name="Path 10" d="M183.7,114.818A68.872,68.872,0,1,1,114.9,45.9a68.872,68.872,0,0,1,68.8,68.918Zm-4.587,0a26.669,26.669,0,1,1-.092,0Z" transform="translate(5.597 5.608)" fill="#fff"/>
      <path id="Path_11" data-name="Path 11" d="M108.26,29.89a13.451,13.451,0,0,1,13.646-13.52c7.958.126,13.887,6.078,13.761,13.761a13.417,13.417,0,0,1-13.761,13.313C114.017,43.307,108.146,37.424,108.26,29.89Zm4.828.482a8.542,8.542,0,0,0,.3,2.293,8.635,8.635,0,0,0,7.247,6.5,8.5,8.5,0,0,0,8.761-4.2,10.08,10.08,0,0,0,1.25-7,8.715,8.715,0,0,0-6.628-7.087,8.555,8.555,0,0,0-9.174,3.44,9.988,9.988,0,0,0-1.754,6.043Z" transform="translate(14.738 1.275)" fill="#fff"/>
      <path id="Path_12" data-name="Path 12" d="M37,49.363c.367,0,.608.355.872.619l6.754,6.605c.161.161.321.321.493.47.6.516.883.539,1.445,0q4.036-4.094,8.027-8.222c.631-.642.6-.872-.149-1.594l-6.685-6.571c-1.41-1.376-1.41-1.376-.057-2.741l1.273-1.3a.814.814,0,0,1,1.216,0c.172.149.333.31.493.47L67.058,53.079l.321.31c.814.837.826,1,0,1.858-.447.47-.894.929-1.353,1.388-.86.86-1.032.86-1.938,0l-4.472-4.369c-.161-.161-.321-.333-.493-.482-.6-.527-.883-.55-1.445,0q-4.036,4.094-8.027,8.211c-.6.619-.585.883.069,1.525,1.605,1.605,3.245,3.176,4.874,4.782.952.929.94,1.066,0,2.018-.527.539-1.044,1.147-1.605,1.617s-.745.447-1.273,0a4.782,4.782,0,0,1-.493-.47L34.789,53.411a6.628,6.628,0,0,1-.562-.573.734.734,0,0,1,0-1.032c.722-.78,1.479-1.525,2.225-2.293a.722.722,0,0,1,.55-.149Z" transform="translate(3.845 4.209)" fill="#fff"/>
      <path id="Path_13" data-name="Path 13" d="M197.618,83.488a.826.826,0,0,1-.585.849c-.734.3-1.479.573-2.225.849a.791.791,0,0,1-1.147-.493c-.138-.321-.252-.631-.378-.952Q191.3,78.465,189.338,73.2c-.092-.252-.195-.5-.3-.745a.78.78,0,0,0-1.089-.516c-2.087.791-4.186,1.56-6.273,2.374-.665.264-.722.55-.413,1.4.849,2.293,1.709,4.587,2.569,6.812.218.608.459,1.147.665,1.812s.161,1.055-.55,1.353-1.342.527-2.03.745-.929.115-1.227-.573-.55-1.41-.814-2.121c-.814-2.167-1.617-4.335-2.443-6.49-.39-1.032-.585-1.147-1.605-.757-.826.287-1.64.608-2.454.917-1.33.5-1.376.6-.883,1.892q2.041,5.481,4.105,10.963c.631,1.7.631,1.7-1.147,2.293-.424.161-.86.31-1.284.482a.78.78,0,0,1-1.147-.459c-.1-.206-.172-.424-.252-.631L167.035,76.47a1.359,1.359,0,0,0-.115-.321c-.3-.894-.218-1.147.665-1.468,2.053-.791,4.117-1.56,6.169-2.293l15.756-5.906a6.522,6.522,0,0,1,.745-.275.78.78,0,0,1,1.021.47c.126.287.241.562.344.849L197.3,82.639A7.324,7.324,0,0,1,197.618,83.488Z" transform="translate(23.322 8.58)" fill="#fff"/>
      <path id="Path_14" data-name="Path 14" d="M91.855,17.14a12.74,12.74,0,0,1,5.734,1.319,7.878,7.878,0,0,1,1.605,13.2,15.917,15.917,0,0,1-7.58,3.44q-1.663.321-3.337.688c-.986.206-1.147.39-.917,1.41.333,1.754.7,3.44,1.055,5.241.069.333.126.665.183,1.009a.768.768,0,0,1-.6.952c-.963.218-1.926.424-2.9.562-.677.1-.883-.1-1.055-.883-.321-1.479-.608-2.97-.906-4.461q-1.915-9.4-3.807-18.818c-.218-1.089-.138-1.284.826-1.479,3.532-.7,7.029-1.537,10.6-2.076A8.551,8.551,0,0,1,91.855,17.14Zm-.493,4.266c-.447.057-.906.08-1.353.172q-2.11.39-4.231.826c-1.227.252-1.376.459-1.147,1.709q.654,3.291,1.342,6.571c.218,1.032.424,1.147,1.5.975q2.19-.413,4.335-.894a6.353,6.353,0,0,0,2.477-1.147A4.392,4.392,0,0,0,95.995,27.3a4.587,4.587,0,0,0-4.633-5.894Z" transform="translate(10.479 1.388)" fill="#fff"/>
      <path id="Path_15" data-name="Path 15" d="M48.387,75.96c.1,4.9-2.867,11.972-10.217,13.841A13.761,13.761,0,0,1,21.3,78.643a14.655,14.655,0,0,1,7.752-14.609c.917-.447,1.147-.367,1.617.516.321.642.631,1.3.94,1.949.413.917.355,1.089-.585,1.605A14.229,14.229,0,0,0,29.2,69.252a8.646,8.646,0,0,0,.39,14.449,9.69,9.69,0,0,0,8.36,1.388A8.692,8.692,0,0,0,43.9,75.249c-.115-.677-.3-1.33-.436-2s0-.917.585-1.147c.826-.3,1.651-.562,2.488-.791s1.055,0,1.284.722a13.325,13.325,0,0,1,.562,3.922Z" transform="translate(1.966 8.23)" fill="#fff"/>
      <path id="Path_16" data-name="Path 16" d="M145.8,23.8a3,3,0,0,1,1.089.527l15.137,9.036c.3.183.6.333.883.539.539.378.631.654.321,1.238s-.757,1.319-1.147,1.961-.711.8-1.479.355c-1.537-.894-3.062-1.823-4.587-2.741s-1.582-.94-2.511.619l-9.449,15.825c-.138.229-.264.459-.413.677a.78.78,0,0,1-1.147.3c-.814-.493-1.64-.952-2.443-1.468-.573-.367-.619-.631-.333-1.238.126-.229.275-.459.4-.688q4.736-7.912,9.438-15.825c.149-.264.3-.527.459-.791a.78.78,0,0,0-.287-1.147c-.252-.172-.516-.321-.78-.482l-4.3-2.569c-1.238-.734-1.261-.849-.5-2.121l.872-1.468A.894.894,0,0,1,145.8,23.8Z" transform="translate(19.329 2.365)" fill="#fff"/>
      <path id="Path_17" data-name="Path 17" d="M165.423,72.56a1.25,1.25,0,0,1-.894-.6l-3.784-4.4-6.445-7.5c-.86-1.009-.849-1.147.126-2.018l17.682-15.194c.986-.849,1.147-.826,2.03.149.424.482.849.975,1.261,1.468.688.826.677,1.032-.172,1.766-1.147,1.021-2.351,2.03-3.532,3.039l-10.94,9.415c-.149.126-.3.241-.436.378-.562.55-.6.837-.08,1.456.768.929,1.571,1.835,2.362,2.764q2.534,2.924,5.046,5.86c.745.883.722,1.147-.138,1.858-.447.4-.917.791-1.376,1.147A1.342,1.342,0,0,1,165.423,72.56Z" transform="translate(21.401 5.071)" fill="#fff"/>
      <path id="Path_18" data-name="Path 18" d="M33.786,130.624a1.869,1.869,0,0,0-1.147.264c-2.213.8-4.4,1.64-6.617,2.443-.768.287-.8.275-1.066-.47s-.883-1.468-.6-2.1,1.238-.608,1.915-.86q5.321-2.018,10.642-3.968c.826-.31.849-.3,1.147.493a6.353,6.353,0,0,1,.768,2.293c0,.78-.883,1.353-1.388,2.018-.906,1.216-1.835,2.4-2.832,3.7a31.708,31.708,0,0,0,3.44.78c.963.218,1.926.4,2.9.585a1.021,1.021,0,0,1,.883.745,18.2,18.2,0,0,0,.711,1.915c.252.573.057.791-.482.986q-6.089,2.236-12.144,4.53c-.539.206-.86.161-1.009-.436s-.929-1.514-.6-2.213,1.238-.608,1.9-.86c2.087-.8,4.174-1.571,6.273-2.465-2.167-.745-4.426-1.089-6.8-1.754C31.045,134.305,32.455,132.516,33.786,130.624Z" transform="translate(2.417 17.323)" fill="#fff"/>
      <path id="Path_19" data-name="Path 19" d="M120.731,186.646a1.537,1.537,0,0,0,0-1.055q-.378-3.1-.78-6.2l-.069-.562c-.08-.447,0-.654.55-.768,2.488-.539,2.5-.539,2.809,1.961.447,3.647.906,7.293,1.353,10.94v.677a.555.555,0,0,1-.493.6,8.923,8.923,0,0,0-1.238.161,1.4,1.4,0,0,1-1.5-.5c-2.121-2.213-4.289-4.392-6.433-6.582-.252-.275-.482-.573-.722-.86l-.264.126c.08.78.149,1.571.241,2.362.241,1.915.482,3.83.745,5.734,0,.459,0,.711-.527.757-.791,0-1.732.527-2.293.138s-.4-1.445-.5-2.225c-.47-3.715-.929-7.442-1.388-11.158-.1-.814-.092-.814.654-.929,2.11-.333,2.11-.333,3.624,1.2l5.332,5.447A3.246,3.246,0,0,0,120.731,186.646Z" transform="translate(15.018 24.956)" fill="#fff"/>
      <path id="Path_20" data-name="Path 20" d="M160.839,168.872l5.734,1.835a19.827,19.827,0,0,1-2.592,2.167c-.3.241-.585,0-.86,0-1.227-.39-2.465-.745-3.681-1.147a1.56,1.56,0,0,0-1.755.275c-1.147.986-1.147.952-.275,2.121.516.654,1.021,1.319,1.548,1.961.287.344.39.608-.057.917s-1.078.837-1.605,1.273c-.287.241-.516.252-.745-.069s-.333-.413-.493-.619q-3.819-4.816-7.614-9.644c-.573-.722-.573-.734.149-1.307,1.5-1.147,3.027-2.4,4.587-3.589a6.881,6.881,0,0,1,2.844-1.365c3.234-.722,6.273,3.016,5.309,5.952C161.194,167.943,161.045,168.321,160.839,168.872Zm-6.066,1.8c1.032-.849,2.041-1.594,2.959-2.431a1.892,1.892,0,0,0,.482-2.293,1.961,1.961,0,0,0-2.867-.94,22.715,22.715,0,0,0-2.8,2.121c-.287.218-.206.436,0,.677.711.929,1.433,1.858,2.225,2.867Z" transform="translate(20.573 22.582)" fill="#fff"/>
      <path id="Path_21" data-name="Path 21" d="M65.258,24.87a.711.711,0,0,1,.665.355c.183.275.344.585.5.883l10.561,20.24a5.032,5.032,0,0,1,.31.608c.241.6.172.917-.39,1.238-.814.459-1.674.872-2.511,1.307a.768.768,0,0,1-1.147-.367c-.138-.229-.264-.47-.378-.7L62.323,28.2a6.709,6.709,0,0,1-.4-.814.722.722,0,0,1,.3-.986c.929-.5,1.869-.986,2.809-1.479A1.353,1.353,0,0,1,65.258,24.87Z" transform="translate(7.926 2.522)" fill="#fff"/>
      <path id="Path_22" data-name="Path 22" d="M141.689,171.19h.1c2.156.057,2.225.138,1.663,2.167a3.175,3.175,0,0,1-.126.55c-.1.493-.321.677-.883.539a4.9,4.9,0,0,0-3.222.321,3.979,3.979,0,0,0-2.293,2.42,4.988,4.988,0,0,0,2.236,5.791A4.759,4.759,0,0,0,145,181.625a.894.894,0,0,0,.172-1.147,3.773,3.773,0,0,1-.333-.722c-.184-.527-.5-.562-.963-.321s-1.147.539-1.754.814c-.333.172-.516.1-.722-.241-1.147-1.938-1.147-1.972.883-2.89,1.147-.5,2.213-1,3.3-1.525.447-.218.688-.138.894.31.711,1.582,1.445,3.165,2.179,4.747a.952.952,0,0,1,0,.86,9.071,9.071,0,0,1-8.876,4.954,7.557,7.557,0,0,1-2.293-14.173,9.46,9.46,0,0,1,4.2-1.1Z" transform="translate(18.428 23.991)" fill="#fff"/>
      <path id="Path_23" data-name="Path 23" d="M42.353,149.363c1.021,1.491,2.018,2.913,2.981,4.358s1.147,1.147-.413,2.167c-1.216.849-.952.849-1.766-.31s-1.858-2.672-2.752-4.036c-.31-.47-.573-.5-1-.172a15.261,15.261,0,0,1-1.41.963c-.436.264-.4.527-.138.917,1.147,1.548,2.156,3.119,3.222,4.679l.78,1.147c-.069.115-.1.229-.183.287-.654.436-1.284,1.273-1.984,1.147s-1.009-1.147-1.456-1.754c-1.479-2.11-2.924-4.243-4.38-6.376-.516-.757-.5-.78.264-1.307l10.515-7.19c.677-.47.7-.47,1.147.264,1.732,2.534,3.44,5.057,5.195,7.6.47.688.482.711-.252,1.147-.527.344-1.021,1.044-1.617.906s-.745-.906-1.089-1.4c-.975-1.4-1.949-2.8-2.89-4.22-.3-.459-.55-.539-1-.206S43.018,148.9,42.353,149.363Z" transform="translate(3.769 19.936)" fill="#fff"/>
      <path id="Path_24" data-name="Path 24" d="M89.69,191.916a1.8,1.8,0,0,1,.413-.963c2.293-3.945,4.587-7.867,6.789-11.823a1.41,1.41,0,0,1,1.617-.826c1.846.218,1.846.195,2.374,2.018l3.509,12.109c.115.39.206.791.333,1.273a13.073,13.073,0,0,1-2.947-.241c-.355,0-.413-.4-.493-.7-.183-.688-.39-1.376-.562-2.076a.86.86,0,0,0-.849-.745c-1.582-.161-3.165-.321-4.736-.562a.906.906,0,0,0-1.066.6c-.321.642-.7,1.25-1.032,1.892a.734.734,0,0,1-.917.436,14.506,14.506,0,0,1-2.431-.39Zm8.807-9.369h-.252l-2.293,4.094a18.657,18.657,0,0,0,3.761.344Z" transform="translate(12.013 25.029)" fill="#fff"/>
      <path id="Path_25" data-name="Path 25" d="M44.33,166.412a2.626,2.626,0,0,1,1.365-.482c2.018-.493,4.048-.952,6.078-1.422,1.147-.252,1.147-.252,1.3-1.353.31-2.293.642-4.5.963-6.743a.5.5,0,0,1,.241-.413,20.642,20.642,0,0,1,2.4,2.11c.241.206.149.482.1.745-.206,1.261-.424,2.534-.631,3.807a1.651,1.651,0,0,0,0,1.055c1.307-.206,2.557-.608,3.83-.929s1.422-.367,2.477.608l1.605,1.491-6.284,1.433c-2.11.482-2.1.482-2.4,2.615s-.619,4.335-.952,6.617a18.886,18.886,0,0,1-2.557-2.213c-.321-.31-.138-.722-.08-1.147.252-1.56.527-3.119.791-4.667-.39-.275-.722-.092-1.032,0-1.284.31-2.58.619-3.853.975a1.353,1.353,0,0,1-1.525-.4C45.6,167.536,44.972,167.009,44.33,166.412Z" transform="translate(5.358 21.762)" fill="#fff"/>
      <path id="Path_26" data-name="Path 26" d="M80.041,173.88a8.21,8.21,0,0,1,6.88,3.853c.482.78.459.791-.355,1.25l-.206.115c-.539.252-1.044.814-1.617.745s-.665-.849-1.044-1.261a4.254,4.254,0,0,0-4.358-1.56A4.438,4.438,0,0,0,76,180.542a4.3,4.3,0,0,0,5.47,5.309c1.227-.31,1.227-.31,1.754.883.677,1.537.677,1.537-1,2.007a7.775,7.775,0,0,1-9.46-5.344,7.672,7.672,0,0,1,5.516-9.323A9.172,9.172,0,0,1,80.041,173.88Z" transform="translate(9.496 24.386)" fill="#fff"/>
      <path id="Path_27" data-name="Path 27" d="M185.04,145.74c-1.72,2.89-3.383,5.642-5.011,8.417-.264.436-.493.459-.906.218q-5.665-3.44-11.33-6.754c-.493-.3-.516-.55-.218-.986s.55-.906.826-1.353c.459-.745.47-.745,1.147-.321l3.44,2.03c1.72,1.021,3.44,2.03,5.172,3.1.5.31.757.229,1.055-.287.917-1.605,1.881-3.188,2.844-4.782.447-.745.459-.745,1.147-.333Z" transform="translate(23.412 20.061)" fill="#fff"/>
      <path id="Path_28" data-name="Path 28" d="M186.332,134.857a15.736,15.736,0,0,0,.94-2.488c.436-1.25.86-2.5,1.284-3.761.126-.39.321-.55.745-.378s1.078.378,1.617.539.528.413.367.86c-.975,2.821-1.926,5.653-2.9,8.486-.252.722-.287.734-1.066.459l-7.958-2.706c-1.433-.493-2.855-.986-4.3-1.456-.493-.161-.677-.378-.447-.906a16.225,16.225,0,0,0,.619-1.823c.138-.424.355-.493.768-.344,1.319.47,2.649.906,3.979,1.353Z" transform="translate(24.459 17.677)" fill="#fff"/>
      <path id="Path_29" data-name="Path 29" d="M173.771,162.334a3.229,3.229,0,0,1-.218.333c-.436.516-.906,1.009-1.33,1.548s-.585.31-.929,0q-4.965-4.335-9.976-8.635c-.367-.321-.4-.573-.057-.929a16.645,16.645,0,0,0,1.147-1.365c.321-.424.573-.493,1.009-.115,3.314,2.9,6.64,5.734,9.965,8.658A.8.8,0,0,1,173.771,162.334Z" transform="translate(22.479 21.311)" fill="#fff"/>
      <path id="Path_30" data-name="Path 30" d="M70.566,169.226c-.069.115-.161.287-.264.447q-3.44,5.5-6.88,11.02c-.287.482-.539.665-1.055.287s-1.078-.7-1.628-1.032a.459.459,0,0,1-.172-.745c.195-.275.367-.573.55-.86L67.4,168.194c.631-1.021.55-.814,1.353-.344.493.287.963.6,1.445.894C70.416,168.859,70.6,168.939,70.566,169.226Z" transform="translate(7.722 23.444)" fill="#fff"/>
      <path id="Path_31" data-name="Path 31" d="M26.629,109.9a2.6,2.6,0,1,1,2.557-2.637,2.6,2.6,0,0,1-2.557,2.637Z" transform="translate(2.372 14.234)" fill="#fff"/>
      <path id="Path_32" data-name="Path 32" d="M188.66,107.33a2.58,2.58,0,1,1-2.58-2.58A2.58,2.58,0,0,1,188.66,107.33Z" transform="translate(25.777 14.243)" fill="#fff"/>
      <path id="Path_33" data-name="Path 33" d="M97.06,84.25c-1.284-.872-2.293-1.961-3.681-2.385s-2.775,0-4.3-.115c.413-.493.917-.573,1.307-.837.814-.55,1.674-1.044,2.454-1.64a1.216,1.216,0,0,1,1.445-.126c1.41.654,2.844,1.261,4.254,1.9a3.9,3.9,0,0,0,1.869.4,24.864,24.864,0,0,1,2.615,0,2.523,2.523,0,0,0,1.846-.677c5.573-4.587,11.169-9.1,16.731-13.68a4.3,4.3,0,0,1,2.293-.986q4.4-.585,8.772-1.261a3.314,3.314,0,0,1,1.571.08c1.044.355,2.087.677,3.142,1a1.926,1.926,0,0,1,1.044.814q2.041,2.936,4.14,5.848a2.293,2.293,0,0,1,.4,2.041c-.5,1.823-1.021,3.647-1.514,5.47-.092.355-.161.642-.654.6a30.57,30.57,0,0,0-5.791.161.39.39,0,0,1-.447-.195c.069-.4.47-.585.768-.849.814-.734,1.686-1.422,2.477-2.179s.929-1.147.4-2.179c-.86-1.777-1.766-3.532-2.626-5.3a1,1,0,0,0-1.044-.665c-2.293,0-4.587,0-6.88.229a5.424,5.424,0,0,0-2.225.814,34.952,34.952,0,0,0-5.665,4.587,1.766,1.766,0,0,0-.459.894c-.539,2.167-1.078,4.335-1.663,6.5a1.5,1.5,0,0,0,.264,1.261,4.587,4.587,0,0,0,4.243,2.293c.872,0,1.732-.08,2.6-.138s1.147.344.78,1.147a2.752,2.752,0,0,1-1.743,1.525,20.939,20.939,0,0,1-3.314.527,4.392,4.392,0,0,1,2.534,2.569c1,1.823,1.938,3.692,2.913,5.527a18.737,18.737,0,0,0,2.293,3.555,3.44,3.44,0,0,1,.711,2.293,20.377,20.377,0,0,1-2.523,10.148,3.52,3.52,0,0,1-.6.826,16.708,16.708,0,0,0-3.2,5.206c-.5,1.147-1.021,2.293-1.537,3.44a5.069,5.069,0,0,1-2.615,2.649c-.963.459-1.021.677-.3,1.376a4.507,4.507,0,0,1,1.284,3.635,10.619,10.619,0,0,0,.539,3.8,3.245,3.245,0,0,0,1.25,1.72,81.154,81.154,0,0,0,12.729,7.695,14.69,14.69,0,0,0,4.082,1.388.906.906,0,0,1,.86.986,6.445,6.445,0,0,1-.367,2.236,14.242,14.242,0,0,1-2.19,4.094c-.78,1.021-1.582,2.03-2.408,3.016a5.344,5.344,0,0,1-2.156,1.445,15.688,15.688,0,0,1-5.321,1.147,97.851,97.851,0,0,1-15.217-.562c-2-.218-3.991-.4-6-.573a7.614,7.614,0,0,1-2.087-.5,45.592,45.592,0,0,1-5.974-2.913,5.023,5.023,0,0,1-1.319-1.238c-1.846-2.167-3.543-4.449-5.241-6.743-3.9-5.275-7.706-10.607-11.3-16.054l-.791-1.25a9.4,9.4,0,0,1-1.7-4.53,36.422,36.422,0,0,0-.814-4.816,12.8,12.8,0,0,1-.138-3.968c.482-4.747,1.009-9.495,1.456-14.254a21.672,21.672,0,0,0,.149-4.587,2.408,2.408,0,0,1,.826-2.19l4.908-4.759a27.618,27.618,0,0,0,2.03-1.984,3.853,3.853,0,0,1,2.832-1.284c2-.195,3.991-.424,5.986-.711A8.67,8.67,0,0,0,97.06,84.25ZM80.536,115.9c0,1.938-.057,3.864,0,5.8a14.962,14.962,0,0,0,.241,2.144,2.431,2.431,0,0,0,.539,1.227c1.64,1.949,3.039,4.071,4.484,6.158,3.44,5.034,6.88,10.1,10.321,15.148a9.174,9.174,0,0,0,6.445,4.163h.229a102.461,102.461,0,0,0,17.751,1.663,4.9,4.9,0,0,0,1.571-.206,15.974,15.974,0,0,0,4.988-2.42,5.985,5.985,0,0,0,1.25-1.147c.745-.952.665-1.571-.344-2.293-2.477-1.686-4.851-3.52-7.236-5.332a4.358,4.358,0,0,0-3.2-1.216c-.516,0-.688-.264-.573-.722a12.277,12.277,0,0,1,.436-1.3,4.025,4.025,0,0,0,0-3.1,15.724,15.724,0,0,1-.539-1.617,16.777,16.777,0,0,0-1.743-4.77,1.147,1.147,0,0,1-.149-.436,7.351,7.351,0,0,1,1.388-5.734,35.078,35.078,0,0,0,2.924-4.186c1.147-1.846,2.2-3.715,3.337-5.562a15.389,15.389,0,0,0,2.144-6.766,2.087,2.087,0,0,0-.241-1.422c-1.238-1.869-2.2-3.9-3.337-5.814a15.756,15.756,0,0,0-1.617-2.271c-.986-1.147-1.846-2.293-2.752-3.44-.413-.539-.849-1.066-1.25-1.617a.5.5,0,0,0-.768-.149,10.79,10.79,0,0,0-2.981,2.053,3.991,3.991,0,0,1-3.807,1.147,6.594,6.594,0,0,1-1.238-.183c-1.835-.333-2.362-.906-2.58-2.752-.115-.86-.195-.952-1.078-.917-1.4,0-2.8.126-4.2.218-3.44.241-6.812.4-10.206.837a3.211,3.211,0,0,0-2.121,1.147c-1.284,1.5-2.454,3.1-3.692,4.587a5.905,5.905,0,0,0-1.353,3.383C81.167,105.453,80.743,110.671,80.536,115.9Z" transform="translate(9.975 8.379)" fill="#fff"/>
      <path id="Path_34" data-name="Path 34" d="M95.819,134.466a3.624,3.624,0,0,1-2.293-1.25c-.665-.814-1.342-1.628-1.984-2.477-1.227-1.594-2.293-3.314-3.624-4.828a5.516,5.516,0,0,1-.78-1.238c-.436-.849-.837-1.709-1.238-2.569a19.907,19.907,0,0,1-1.972-8.91c0-1.858-.092-3.715-.195-5.573a14.838,14.838,0,0,1,.447-4.5q.849-3.3,1.537-6.651a2.821,2.821,0,0,1,2.041-2.213A4.437,4.437,0,0,1,88.973,94a81.071,81.071,0,0,0,8.291-1.353,2.832,2.832,0,0,1,1.835.3,19.987,19.987,0,0,0,8.3,2.179,3.922,3.922,0,0,0,3.52-1.147,1.3,1.3,0,0,1,1.674-.195,6.055,6.055,0,0,1,1.789,1.4,59.12,59.12,0,0,1,3.738,4.713,1.238,1.238,0,0,1,.092,1.3,20.125,20.125,0,0,1-1.388,2.981c-2.121,3.91-4.53,7.637-6.88,11.467a9.172,9.172,0,0,1-.6.975,5.344,5.344,0,0,0-.975,3.979c.195,2,.367,4,.573,6a5.38,5.38,0,0,0,.252,1.147,76.718,76.718,0,0,0,3.647,9.667,7.236,7.236,0,0,0,2.293,3.1,2.844,2.844,0,0,1,1.078,1.823c.149.86-.206,1.33-1.066,1.365a10.574,10.574,0,0,1-1.7-.126,7,7,0,0,1-1-.218c-4.071-1.021-4.782-1.433-7.66-4.507a25.606,25.606,0,0,1-3.991-5.642c-2.293-4.22-4.713-8.314-7.006-12.511-2.087-3.807-1.984-2.924-2.053-8.027a33.485,33.485,0,0,1,.642-7.247c.619-3.05,1.25-3.6,4.312-4.014a37.843,37.843,0,0,1,5.344-.229,4.587,4.587,0,0,1,4,2.213,4.862,4.862,0,0,1,.734,4.7c-1.147,3.073-2.133,6.158-3.314,9.174a11.053,11.053,0,0,1-.608,1.353,2,2,0,0,1-3.268.39,5.172,5.172,0,0,1-1.261-2.878,9.874,9.874,0,0,1,.321-3.371.722.722,0,0,1,.917-.619H99.9c1.433.218,1.628.424,1.777,1.858a6.88,6.88,0,0,0,.172,1.582c.378,0,.436-.31.539-.528,1.009-2.293,1.743-4.77,2.534-7.178a1.433,1.433,0,0,0-.149-1.147,4.266,4.266,0,0,0-2.8-2.293,11,11,0,0,0-4.965.069,1.709,1.709,0,0,0-1.422,1.56,20.939,20.939,0,0,0-.252,3.176,50.924,50.924,0,0,1-.161,5.447,9.506,9.506,0,0,0,1.078,5.607c2.66,5.114,5.493,10.137,8.566,15.022a10.687,10.687,0,0,0,4.587,3.589c.665.333,1.009,0,.837-.768a8.6,8.6,0,0,0-.436-1.3c-.6-1.479-1.147-2.981-1.835-4.415a20.916,20.916,0,0,1-1.9-7.9c-.092-1.628-.161-3.257-.287-4.885a4.461,4.461,0,0,1,.459-2.293q2.787-5.917,5.55-11.834c.573-1.238,1.147-2.488,1.7-3.727.378-.86.344-1.147-.378-1.777a10.091,10.091,0,0,0-3.658-2.03,32.659,32.659,0,0,0-7.362-1.342,31.707,31.707,0,0,0-6.674.6c-1.605.241-3.211.55-4.816.814a2.293,2.293,0,0,0-1.9,1.41,11.914,11.914,0,0,0-1.147,3.681,69.482,69.482,0,0,0-.378,9.77,33.7,33.7,0,0,0,2.775,10.974,49.23,49.23,0,0,0,5.091,9.506Z" transform="translate(11.136 12.46)" fill="#fff"/>
    </g>
  </g>
</svg>
