<svg xmlns="http://www.w3.org/2000/svg" xmlns:xlink="http://www.w3.org/1999/xlink" width="364" height="250" viewBox="0 0 364 250">
  <defs>
    <clipPath id="clip-Frontier_Logo">
      <rect width="364" height="250"/>
    </clipPath>
  </defs>
  <g id="Frontier_Logo" clip-path="url(#clip-Frontier_Logo)">
    <g id="_24MPM2" data-name="24MPM2" transform="translate(5.08 53)">
      <path id="Path_35" data-name="Path 35" d="M1.021,29H50.712c.872,0,1.087.24,1.074,1.1V40.447c0,.91-.227,1.15-1.15,1.15H16.688c-1.023,0-1.339.215-1.327,1.263q.076,8.187,0,16.425c0,.985.3,1.188,1.263,1.188H48.5c1.049,0,1.339.253,1.263,1.263-.076,3.209,0,6.418,0,9.627,0,.91-.2,1.263-1.188,1.263H16.587c-1,0-1.263.265-1.263,1.263v29.059c0,1-.265,1.263-1.263,1.263H.92Z" transform="translate(-1 6.629)" fill="#fff"/>
      <path id="Path_36" data-name="Path 36" d="M216.436,120.03c-.076,0-.152-.139-.253-.152-5.534-1.023-8.844-5.8-8.692-11.573.2-9.274,8.756-13.468,16.21-10.5,4.447,1.769,6.317,5.5,6.582,10.107a12.293,12.293,0,0,1-1.428,6.81,9.918,9.918,0,0,1-6.191,4.965c-.417.126-.9.088-1.263.4Zm2.426-3.26c4.852,0,7.884-3.121,7.884-8.124s-3.209-8.44-7.821-8.478-7.871,3.3-7.871,8.326S214.162,116.771,218.862,116.771Z" transform="translate(53.416 24.506)" fill="#fff"/>
      <path id="Path_37" data-name="Path 37" d="M29.3,120.051a1.111,1.111,0,0,0-.278-.126c-5.862-1.011-9.324-6.216-8.844-12.483.392-4.51,2.527-7.985,6.86-9.64a11.459,11.459,0,0,1,12.217,1.781c5.6,4.7,5.231,16.589-2.855,19.722-.771.291-1.554.505-2.337.758Zm2.236-3.26c4.889,0,7.884-3.07,7.9-8.1s-3.209-8.516-7.871-8.5-7.808,3.31-7.808,8.3S26.863,116.778,31.537,116.791Z" transform="translate(4.062 24.486)" fill="#fff"/>
      <path id="Path_38" data-name="Path 38" d="M257.653,120.045a4.523,4.523,0,0,0-1.466-.4,9.059,9.059,0,0,1-5.319-4.018c-.291-.455-.253-.708.215-.985a7.614,7.614,0,0,1,1.908-1.188c.644-.126,1.023.922,1.541,1.39a9.084,9.084,0,0,0,9.337,1.263,3.1,3.1,0,0,0,1.908-2.944,2.855,2.855,0,0,0-1.984-2.641,15.452,15.452,0,0,0-4.51-1.061,14.744,14.744,0,0,1-4.94-1.453,5.5,5.5,0,0,1-1-9c3.272-2.893,10.31-2.944,13.632-.1,1.693,1.453,1.655,1.529-.114,2.792-.771.543-1.263.695-2.022-.088a7.581,7.581,0,0,0-8.25-.846,2.679,2.679,0,0,0-1.541,2.527,2.527,2.527,0,0,0,1.819,2.186,24.373,24.373,0,0,0,5.054,1.074,17.17,17.17,0,0,1,3.866,1.124,5.622,5.622,0,0,1,3.626,5.306,6.077,6.077,0,0,1-3.285,5.787,19.359,19.359,0,0,1-3.7,1.263Z" transform="translate(64.796 24.491)" fill="#fff"/>
      <path id="Path_39" data-name="Path 39" d="M99.791,119.937c-.1,0-.19-.1-.278-.126-4.814-1.263-7.29-4.308-7.353-9.286V98.117c0-.67.177-.9.859-.9,2.729,0,2.729-.076,2.729,2.653v10.449c0,3.487,1.617,5.572,4.384,6.2,3.955.9,7.189-1.377,7.341-5.407s.114-8.414,0-12.634c0-1.087.316-1.263,1.339-1.263,2.262.076,2.262,0,2.262,2.287v10.764c0,5.37-2.893,8.781-7.227,9.564,0,0-.114.076-.164.114Z" transform="translate(23.036 24.6)" fill="#fff"/>
      <path id="Path_40" data-name="Path 40" d="M10.686,120.034c-.316-.265-.72-.2-1.074-.291A10.727,10.727,0,0,1,1.2,108.372c.152-4.662,2.009-8.465,6.469-10.348a11.788,11.788,0,0,1,12.748,1.617c.67.531.657.884,0,1.39s-1,1.263-1.617,1.415-1.087-.67-1.668-1a8.566,8.566,0,0,0-10.436,1.529,9.046,9.046,0,0,0-.126,11.042,8.528,8.528,0,0,0,11.522.884c.695-.543,1.087-.505,1.554.152a5.054,5.054,0,0,0,.366.366c1.478,1.478,1.466,1.466-.24,2.666a14.783,14.783,0,0,1-4.738,1.946Z" transform="translate(-0.937 24.503)" fill="#fff"/>
      <path id="Path_41" data-name="Path 41" d="M151.993,120.028l-1.491-.392a9.931,9.931,0,0,1-7.492-7.277c-1.263-4.763-.556-9.173,3.209-12.634a12.078,12.078,0,0,1,15.591,0c.455.4.657.695,0,1.087a1.717,1.717,0,0,0-.152.152c-.518.493-.973,1.263-1.592,1.428s-1.162-.67-1.769-1.011a8.553,8.553,0,0,0-10.486,1.693,9.021,9.021,0,0,0,.088,11.042,8.566,8.566,0,0,0,11.371.783c.67-.518,1.074-.569,1.554.114a3.93,3.93,0,0,0,.505.518c1.339,1.263,1.327,1.263-.24,2.451A14.63,14.63,0,0,1,156.263,120Z" transform="translate(36.279 24.508)" fill="#fff"/>
      <path id="Path_42" data-name="Path 42" d="M128.976.8c.2.291.543.278.821.392a4.469,4.469,0,1,1-3.462.025c.265-.126.632-.088.783-.417Z" transform="translate(31.324 -0.8)" fill="#fff"/>
      <path id="Path_43" data-name="Path 43" d="M99.981,100.38c-7.808-.076-14.921-2.388-20.442-8.174A26.608,26.608,0,0,1,87.865,49.54c11.535-5.281,26.115-2.262,34.012,7.037a26.532,26.532,0,0,1-14,42.856,31.359,31.359,0,0,1-7.9.948Zm13.569-25.926a16.639,16.639,0,0,0-2.8-9.627c-5.9-8.617-16.425-6.608-20.96-.531a15.944,15.944,0,0,0-.379,18.092c4.561,6.557,13.544,7.808,19.166,2.641a15.01,15.01,0,0,0,4.978-10.575Z" transform="translate(17.766 11.358)" fill="#fff"/>
      <path id="Path_44" data-name="Path 44" d="M258.092,79.55v9.286a6.887,6.887,0,0,0,0,1.263c.493,2.527-.594,3.79-2.893,4.889a56.2,56.2,0,0,1-15.667,5.155c-13.241,1.832-25.85-5.66-29.931-17.84A26.785,26.785,0,0,1,235.956,47c13.582.455,22.843,9.88,24.005,23.386.114,1.365.076,2.754.177,4.131,0,.8-.24.973-1,.973H223.524c-.948,0-1.036.215-.783,1.087,2.363,8.086,10.461,12.546,18.951,11a36.778,36.778,0,0,0,15.161-7.113c.328-.253.657-.505,1-.745q.116-.094.24-.177ZM234.478,66.145H244.51c.72,0,.872-.2.72-.884A10.474,10.474,0,0,0,233.77,57.3a12.1,12.1,0,0,0-9.8,7.9c-.354.846-.076.96.695.948C227.921,66.119,231.193,66.145,234.478,66.145Z" transform="translate(53.605 11.367)" fill="#fff"/>
      <path id="Path_45" data-name="Path 45" d="M133.515,55.721c1.061-1.087,1.908-2.3,2.906-3.373,3.828-4.081,8.667-5.534,14.138-5.344,9.564.291,16.083,6.456,16.892,16.058.114,1.339.177,2.678.177,4.03V98.033c0,.884-.177,1.188-1.124,1.175H155.132c-1,0-1.175-.328-1.162-1.263V69.48a17.346,17.346,0,0,0-.354-3.7,6.658,6.658,0,0,0-7.656-5.648,11.3,11.3,0,0,0-8.705,5.054c-2.881,4.094-3.727,8.768-3.79,13.645V97.983c0,.935-.265,1.15-1.162,1.137H120.818c-.708,0-.948-.19-.948-.922V49.025c0-.758.278-.9.96-.9h11.7c.72,0,.935.19.922.922C133.49,51.312,133.515,53.51,133.515,55.721Z" transform="translate(30.335 11.367)" fill="#fff"/>
      <path id="Path_46" data-name="Path 46" d="M168.018,75.975V62.621c0-.884-.164-1.263-1.124-1.175-2.135.076-4.27,0-6.406,0-.72,0-.96-.19-.948-.935V52.134c0-.708.177-.96.922-.948h6.519c.809,0,1.049-.2,1.036-1.036V36.809c0-.809.2-1.061,1.036-1.049h11.181c.834,0,1.023.265,1.011,1.049V50.163c0,.834.24,1.023,1.049,1.023h12.2c.821,0,1.061.215,1.049,1.036v8.288c0,.72-.215.948-.935.935h-11.8c-.8,0-1.124.126-1.112,1.049V83.808a12.382,12.382,0,0,0,.2,2.16,5.483,5.483,0,0,0,5.61,4.8,15.894,15.894,0,0,0,7.05-1.4c.745-.316.985-.253.973.644v10.246c0,.531,0,.9-.682,1.049a40.43,40.43,0,0,1-15.06,1.263c-7.366-1.011-11.485-5.736-11.687-13.43-.114-4.409,0-8.844,0-13.241Z" transform="translate(40.785 8.409)" fill="#fff"/>
      <path id="Path_47" data-name="Path 47" d="M268.242,56.35c.354-.606.708-1.263,1.087-1.819a14.58,14.58,0,0,1,17.789-6.7A1.049,1.049,0,0,1,287.976,49V59.66c0,.821-.215.9-.935.644-6.658-2.325-12.028.72-15.161,5.306a21.958,21.958,0,0,0-3.689,12.217c-.1,5.054-.063,10.209-.076,15.313v5.18c0,.594-.139.859-.809.859h-12c-.569,0-.821-.152-.783-.758s0-1.516,0-2.274V49.4c0-1.087.328-1.263,1.263-1.263h11.282c.708,0,.948.19.935.922v7.189Z" transform="translate(65.805 11.357)" fill="#fff"/>
      <path id="Path_48" data-name="Path 48" d="M58.72,56.343c.556-.9,1.087-1.807,1.68-2.678a14.365,14.365,0,0,1,17.132-5.85,1.15,1.15,0,0,1,.935,1.263q0,5.269,0,10.562c0,.505.076.985-.745.682-7.29-2.678-13.38,1.263-16.425,7.138a24.561,24.561,0,0,0-2.615,11.371V97.986c0,.9-.227,1.162-1.15,1.15q-5.749-.076-11.485,0c-.783,0-1-.2-1-.985V49.078c0-.708.19-.948.922-.935h11.7c.745,0,.922.253.91.948v7.138Z" transform="translate(10.625 11.352)" fill="#fff"/>
      <path id="Path_49" data-name="Path 49" d="M207.288,73.5V97.82c0,.834-.19,1.124-1.074,1.112h-11.6c-.771,0-.985-.215-.985-.985V48.989c0-.809.2-1.061,1.036-1.049h11.586c.821,0,1.036.227,1.036,1.036Q207.269,61.219,207.288,73.5Z" transform="translate(49.766 11.618)" fill="#fff"/>
      <path id="Path_50" data-name="Path 50" d="M87.1,102.843l-1.781,2.527c-1.718,2.388-3.424,4.776-5.142,7.151-.632.872-1,.872-1.63,0l-6.178-8.692c-.19-.278-.4-.543-.657-.9a1.857,1.857,0,0,0-.164,1.137V118.56c0,.935-.265,1.15-1.162,1.137-2.527,0-2.527,0-2.527-2.527V98.333c0-.859.265-1.011,1.087-1.112a4.422,4.422,0,0,1,4.927,2.527c1.415,2.438,3.2,4.662,4.826,6.974.708,1,.708,1,1.377,0,2.034-2.906,4.094-5.812,6.1-8.743a1.39,1.39,0,0,1,1.428-.745c1.061.114,2.527-.455,3.07.24s.177,1.971.177,3.007V118.6c0,.834-.253,1.023-1.036,1.023-2.527,0-2.527,0-2.527-2.527V102.957Z" transform="translate(16.634 24.574)" fill="#fff"/>
      <path id="Path_51" data-name="Path 51" d="M62.874,102.9c-.505.164-.606.518-.8.783-2.11,2.906-4.195,5.824-6.317,8.73-.67.935-1.036.948-1.693,0-2.047-2.855-4.081-5.736-6.115-8.6-.215-.3-.442-.594-.809-1.074v15.856c0,.758-.164,1.011-.973,1.011-2.691,0-2.691,0-2.691-2.666V98.3c0-.859.24-1.011,1.074-1.124a4.447,4.447,0,0,1,4.927,2.527c1.478,2.527,3.348,4.814,5.054,7.239.455.67.67.606,1.112,0,2.021-2.956,4.119-5.875,6.14-8.844a1.579,1.579,0,0,1,1.6-.846,16.563,16.563,0,0,0,2.375,0c.657,0,.809.227.809.847v20.708c0,.619-.177.809-.809.821-2.8,0-2.8.088-2.8-2.754Z" transform="translate(10.212 24.566)" fill="#fff"/>
      <path id="Path_52" data-name="Path 52" d="M246.206,112.681V98.113c0-.632.1-.91.834-.922,2.817,0,2.817-.063,2.817,2.754v18.522c0,.948-.291,1.1-1.162,1.137a2.843,2.843,0,0,1-2.666-1.263c-3.576-4.561-7.239-9.059-10.866-13.569-.164-.215-.341-.4-.543-.632-.3.379-.164.771-.164,1.137v13.241c0,.884-.253,1.087-1.1,1.074-2.527,0-2.527,0-2.527-2.527V98.24c0-.884.265-1.036,1.1-1.087a2.881,2.881,0,0,1,2.742,1.339c3.424,4.409,6.936,8.756,10.411,13.127.3.366.606.733.9,1.112Z" transform="translate(59.566 24.578)" fill="#fff"/>
      <path id="Path_53" data-name="Path 53" d="M128.478,112.708a1.706,1.706,0,0,0,.1-1V98.254c0-.758.114-1.087,1-1.074,2.615,0,2.615,0,2.615,2.641v18.737c0,.821-.24.973-1.036,1.036a2.982,2.982,0,0,1-2.843-1.352c-3.538-4.536-7.176-9.008-10.79-13.493-.164-.2-.341-.392-.708-.8v14.706c0,.695-.139.96-.9.96-2.729,0-2.729,0-2.729-2.742V98.355c0-.91.253-1.112,1.15-1.15a2.78,2.78,0,0,1,2.527,1.263c3.563,4.574,7.2,9.084,10.815,13.607C127.96,112.253,128.111,112.607,128.478,112.708Z" transform="translate(28.575 24.589)" fill="#fff"/>
      <path id="Path_54" data-name="Path 54" d="M173.4,97.32c1.592-.518,2.186.3,2.767,1.617,2.868,6.6,5.837,13.152,8.844,19.71.366.821.152.846-.632.96-2.123.316-3.487-.329-3.967-2.527-.379-1.794-1.466-2.337-3.335-2.211-2.906.19-5.85.076-8.844,0a1.188,1.188,0,0,0-1.263.872c-.417,1.087-.96,2.135-1.415,3.209a.8.8,0,0,1-.922.606,14.441,14.441,0,0,1-3.045-.152,15.289,15.289,0,0,1,1.112-2.653c2.628-5.913,5.319-11.813,7.909-17.688C171.2,97.687,171.773,96.689,173.4,97.32Zm0,3.79c-1.541,3.474-3.007,6.721-4.435,9.994-.3.708.341.518.644.518h7.581c.91,0,.821-.291.531-.935-1.023-2.224-2-4.473-2.994-6.7Z" transform="translate(41.326 24.575)" fill="#fff"/>
      <path id="Path_55" data-name="Path 55" d="M200.353,45.952a7.252,7.252,0,0,1-.265-14.492,7.581,7.581,0,0,1,7.581,7.353,7.176,7.176,0,0,1-7.315,7.138Z" transform="translate(49.663 7.277)" fill="#fff"/>
      <path id="Path_56" data-name="Path 56" d="M182.719,31.388a6.469,6.469,0,1,1,4.62-1.89,6.494,6.494,0,0,1-4.62,1.89Z" transform="translate(45.187 3.836)" fill="#fff"/>
      <path id="Path_57" data-name="Path 57" d="M188.053,110.029v-8.68c0-.67-.177-.91-.872-.9h-5.7c-.569,0-.771-.152-.8-.745-.1-2.527-.126-2.527,2.426-2.527h14.795c.834,0,1.049.253,1.036,1.049,0,2.236,0,2.249-2.2,2.249H192.6c-.783,0-.985.215-.985.985v16.968c0,.973-.278,1.263-1.2,1.175-2.426,0-2.426,0-2.426-2.413Z" transform="translate(46.348 24.59)" fill="#fff"/>
      <path id="Path_58" data-name="Path 58" d="M164.639,20.276a5.382,5.382,0,0,1-5.509-5.37,5.458,5.458,0,1,1,5.509,5.37Z" transform="translate(40.677 1.455)" fill="#fff"/>
      <path id="Path_59" data-name="Path 59" d="M151.974,8.494a5.142,5.142,0,1,1-5.167-5.054,5.054,5.054,0,0,1,5.167,5.054Z" transform="translate(36.083 -0.105)" fill="#fff"/>
      <path id="Path_60" data-name="Path 60" d="M134.443,108.329V98.095c0-.745.227-.935.935-.935,2.615,0,2.615,0,2.615,2.527v18.825c0,.834-.24,1.036-1.036,1.023-2.527,0-2.527,0-2.527-2.527Z" transform="translate(34.171 24.584)" fill="#fff"/>
      <path id="Path_61" data-name="Path 61" d="M199.483,108.321V98.213c0-.708.1-1.036.935-1.023,2.653,0,2.653,0,2.653,2.615v18.623c0,.985-.316,1.188-1.263,1.162-2.388,0-2.388,0-2.388-2.451Z" transform="translate(51.291 24.592)" fill="#fff"/>
      <path id="Path_62" data-name="Path 62" d="M109.05,8.921a3.79,3.79,0,1,1,3.79-3.714,3.727,3.727,0,0,1-3.79,3.714Z" transform="translate(26.487 -0.658)" fill="#fff"/>
      <path id="Path_63" data-name="Path 63" d="M87.18,7.488a3.2,3.2,0,0,1,3.335-3.3,3.247,3.247,0,0,1,3.3,3.26,3.335,3.335,0,0,1-3.31,3.386A3.272,3.272,0,0,1,87.18,7.488Z" transform="translate(21.723 0.092)" fill="#fff"/>
      <path id="Path_64" data-name="Path 64" d="M72.639,16.344a2.312,2.312,0,1,1,2.325-2.325,2.274,2.274,0,0,1-2.325,2.325Z" transform="translate(17.287 2.077)" fill="#fff"/>
      <path id="Path_65" data-name="Path 65" d="M59.306,24.02a1.44,1.44,0,1,1-.431-1.027,1.453,1.453,0,0,1,.431,1.027Z" transform="translate(13.615 4.937)" fill="#fff"/>
      <path id="Path_66" data-name="Path 66" d="M50,35.39a1.011,1.011,0,0,1-1.1,1,1.074,1.074,0,0,1,0-2.148A1.023,1.023,0,0,1,50,35.39Z" transform="translate(11.358 8.008)" fill="#fff"/>
    </g>
  </g>
</svg>
