<svg xmlns="http://www.w3.org/2000/svg" xmlns:xlink="http://www.w3.org/1999/xlink" width="50" height="50" viewBox="0 0 50 50">
  <defs>
    <clipPath id="clip-linked">
      <rect width="50" height="50"/>
    </clipPath>
  </defs>
  <g id="linked" clip-path="url(#clip-linked)">
    <path id="Icon_awesome-linkedin-in" data-name="Icon awesome-linkedin-in" d="M8.683,38.791H.641v-25.9H8.683ZM4.658,9.36a4.68,4.68,0,1,1,4.658-4.7A4.7,4.7,0,0,1,4.658,9.36ZM38.783,38.791H30.758V26.184c0-3-.061-6.858-4.181-6.858-4.181,0-4.822,3.264-4.822,6.641V38.791H13.721v-25.9h7.713v3.533h.113a8.45,8.45,0,0,1,7.609-4.182c8.139,0,9.635,5.36,9.635,12.321V38.791Z" transform="translate(6 5.999)" fill="#fff"/>
  </g>
</svg>
