<svg xmlns="http://www.w3.org/2000/svg" xmlns:xlink="http://www.w3.org/1999/xlink" width="364" height="250" viewBox="0 0 364 250">
  <defs>
    <clipPath id="clip-Salesforce_Logo">
      <rect width="364" height="250"/>
    </clipPath>
  </defs>
  <g id="Salesforce_Logo" clip-path="url(#clip-Salesforce_Logo)">
    <g id="rMEiSZ" transform="translate(11 6.03)">
      <path id="Path_67" data-name="Path 67" d="M89.085,1H91.71c.157.21.381.144.59.144a53.235,53.235,0,0,1,8.293.748,65.713,65.713,0,0,1,41.49,24.039c.905,1.1.892,1.115,1.876.171l.682-.617c14.8-13.817,32.253-19.42,52.211-15.89,18.252,3.228,31.938,13.437,41.464,29.261.407.669.7.827,1.456.5a71.71,71.71,0,0,1,41.635-4.763,70.857,70.857,0,0,1,43.459,25.456c14.67,17.767,20.1,38.315,15.982,60.989-4.409,24-17.832,41.74-39.5,52.946-14.565,7.532-30.1,9.448-46.241,6.561a1.142,1.142,0,0,0-1.43.643,53.707,53.707,0,0,1-68.888,21.782c-.879-.407-1.155-.249-1.535.6A61.361,61.361,0,0,1,70.02,200.448c-.2-.5-.3-.84-1.01-.7A57.106,57.106,0,0,1,1.289,148.211,16.612,16.612,0,0,0,1,144.695V142.07c.2-.2.144-.459.157-.7a45.519,45.519,0,0,1,.735-7.558,56.948,56.948,0,0,1,26.86-39.772c.617-.381.722-.656.446-1.312a64.375,64.375,0,0,1-4.081-36.911c3.438-18.934,13.4-33.7,29.484-44.22A64.3,64.3,0,0,1,84.978,1.354,27.791,27.791,0,0,0,89.085,1ZM195.9,103.007h2.834a.84.84,0,0,0,1-.814c.184-1.115.394-2.218.59-3.333s0-1.128-.945-1.142h-5.249c-.512,0-.735-.1-.6-.669a24.562,24.562,0,0,1,.932-3.727,5,5,0,0,1,4.488-3.5,8.831,8.831,0,0,1,3.254.367.7.7,0,0,0,1.023-.525c.407-1.181.827-2.362,1.312-3.53.276-.656,0-.945-.577-1.115a16.914,16.914,0,0,0-3.936-.577c-5.695-.157-9.474,2.362-11.495,7.689a22.452,22.452,0,0,0-1.194,4.789c-.092.617-.3.827-.932.814H183.01a.905.905,0,0,0-1.05.892c-.184,1.168-.407,2.336-.63,3.5-.131.656.092.905.748.892h3.215c.84,0,1.01.184.853,1-1.417,7.742-2.782,15.5-4.186,23.251a25.732,25.732,0,0,1-2.113,7.361,4.2,4.2,0,0,1-3.359,2.519,7.7,7.7,0,0,1-3.7-.3c-.643-.249-.945,0-1.155.59-.354,1.1-.761,2.191-1.194,3.267-.289.722,0,1.037.656,1.312a15.077,15.077,0,0,0,5.97.551,9.907,9.907,0,0,0,8.332-5.5,17.215,17.215,0,0,0,1.181-2.769,69.071,69.071,0,0,0,2.362-10.812q1.771-9.867,3.477-19.682c.092-.486.249-.669.761-.656.879-.079,1.8-.1,2.716-.1Zm-92.7,13.463c-.118-3.084.2-6.692-.157-10.287a9.08,9.08,0,0,0-7.374-8.5,23.212,23.212,0,0,0-10.012,0,17.74,17.74,0,0,0-5.524,1.863,1.01,1.01,0,0,0-.551,1.483c.381.866.682,1.758,1.01,2.624.459,1.22.459,1.207,1.588.669a18.5,18.5,0,0,1,9.185-1.785c3.753.21,5.38,1.824,5.524,5.249,0,1.64,0,1.6-1.548,1.4a23.186,23.186,0,0,0-10.6.63c-6.075,2.073-8.332,7.387-6.561,12.977,1.194,3.727,4.2,5.249,7.873,5.918,5.577.971,11-.118,16.4-1.312.6-.144.722-.525.722-1.076C103.178,123.175,103.191,120.092,103.191,116.47Zm35.258-1.693h8.988c1,0,1.312-.3,1.4-1.312a26.94,26.94,0,0,0-.118-4.934c-.7-6-4.579-10.773-11.1-11.35-7.151-.617-12.951,2.808-15.05,9.566a22.071,22.071,0,0,0-.381,11.573,12.715,12.715,0,0,0,6.889,8.988,17.268,17.268,0,0,0,7.532,1.706,23.7,23.7,0,0,0,10.314-1.693c.7-.3.919-.682.617-1.417a24.551,24.551,0,0,1-1.023-2.847c-.249-.879-.682-.971-1.483-.656a19.551,19.551,0,0,1-9.539,1.1,7.269,7.269,0,0,1-6.692-5.721c-.184-.748-.21-1.509-.367-2.257s.1-.827.748-.814c3.031.092,6.18.079,9.264.079Zm158.181,0h9.356c.761,0,1.05-.3,1.1-1.01a27.319,27.319,0,0,0,0-4.4c-.538-6.692-4.593-11.534-11.127-12.137-7.256-.669-13.122,2.821-15.195,9.841a21.808,21.808,0,0,0-.144,11.809,12.636,12.636,0,0,0,9.054,9.4,22.385,22.385,0,0,0,8.345.761,20.864,20.864,0,0,0,7.282-1.653c.643-.289.879-.63.577-1.312a26.246,26.246,0,0,1-1.115-3.044c-.236-.84-.643-.932-1.4-.63a19.525,19.525,0,0,1-9.093,1.168c-4.671-.42-7.4-3.372-7.558-8.1,0-.643.171-.748.748-.748,3.057.079,6.154.066,9.172.066ZM201,113.15a28.873,28.873,0,0,0,.21,3.189c.814,7.624,6.01,12.492,13.581,12.741a13.279,13.279,0,0,0,14.145-10.957,23.514,23.514,0,0,0,.341-8.017c-.984-8.057-6.115-12.229-12.4-12.9a13.633,13.633,0,0,0-14.171,7.479A19.551,19.551,0,0,0,201,113.163ZM62.3,129.185a15.379,15.379,0,0,0,3.727-.3,14.591,14.591,0,0,0,2.27-.6,8.726,8.726,0,0,0,5.787-8.424c.144-3.648-1.785-5.944-4.816-7.545a30.9,30.9,0,0,0-4.763-1.863,20.654,20.654,0,0,1-5.655-2.323A2.926,2.926,0,0,1,59,103.152a5.091,5.091,0,0,1,2.624-.774,18.961,18.961,0,0,1,9,2.139c.682.354,1.037.262,1.312-.485.341-1.01.709-2.021,1.115-3,.289-.682.079-1.063-.538-1.391a18.278,18.278,0,0,0-5.026-1.929c-3.674-.774-7.348-1.01-10.865.63a8.608,8.608,0,0,0-5.249,7.939c-.157,3.766,1.758,6.207,5.012,7.781a29.813,29.813,0,0,0,4.2,1.548,24.144,24.144,0,0,1,5.734,2.139,3.044,3.044,0,0,1,1,4.566,4.055,4.055,0,0,1-2.218,1.535,10.694,10.694,0,0,1-4.907.092,16.967,16.967,0,0,1-6.9-2.782c-1.037-.748-1.115-.748-1.6.564-.3.827-.59,1.666-.892,2.493-.472,1.312-.472,1.312.7,2.021A20.247,20.247,0,0,0,62.3,129.185Zm102.178,0a15.379,15.379,0,0,0,5.892-.84,8.739,8.739,0,0,0,6.062-7.755c.42-3.936-1.43-6.653-4.881-8.4a42.67,42.67,0,0,0-5.826-2.178,16.1,16.1,0,0,1-4.514-1.968,2.9,2.9,0,0,1,0-4.868,4.737,4.737,0,0,1,2.756-.866,18.856,18.856,0,0,1,9.015,2.126c.735.381,1.1.236,1.312-.525.315-.958.643-1.916,1.05-2.834a1.023,1.023,0,0,0-.538-1.535A20.483,20.483,0,0,0,163.944,97.1a12.466,12.466,0,0,0-6.325,1.9c-4.855,3.057-6.062,11.626.787,14.854a33.13,33.13,0,0,0,4.54,1.693,27.319,27.319,0,0,1,5.5,2.008,2.952,2.952,0,0,1,1.824,2.847,3.4,3.4,0,0,1-1.955,2.979,6.941,6.941,0,0,1-3.74.682,17.268,17.268,0,0,1-8.923-2.992c-1.023-.682-1.168-.617-1.588.551-.354.958-.643,1.916-1.037,2.847a1.037,1.037,0,0,0,.512,1.5,20.443,20.443,0,0,0,10.943,3.215Zm89.594-15.9a27.414,27.414,0,0,0,.525,4.632c1.037,4.4,3.241,7.939,7.545,9.749,5.065,2.139,10.2,1.719,15.313,0,.617-.2.59-.6.407-1.076-.394-1.089-.827-2.165-1.181-3.28-.223-.7-.577-.827-1.233-.564a15.615,15.615,0,0,1-6.863.787,7.755,7.755,0,0,1-7.243-5.747,15.576,15.576,0,0,1,.079-9.474,7.65,7.65,0,0,1,7.965-5.747,18.843,18.843,0,0,1,5.852.787c.669.223,1.01,0,1.22-.63.341-1.05.7-2.086,1.128-3.1s.066-1.115-.709-1.312a24.38,24.38,0,0,0-9.513-1.01,13.633,13.633,0,0,0-8.634,3.779C255.074,104.5,254.142,108.965,254.076,113.282Zm-144.338-6.561v20.312c0,1.391,0,1.417,1.443,1.417h3.49c1.391,0,1.417,0,1.417-1.443V86.015c0-.669-.3-.932-.945-.919h-4.2c-1.207,0-1.312.079-1.312,1.312Zm131.255-5.931V99.005c.066-.853-.236-1.233-1.142-1.207h-3.936c-.84,0-1.128.289-1.115,1.115v28.435c0,.866.354,1.115,1.155,1.1h4.028c1.089,0,1.181-.1,1.181-1.22V113.19a25.588,25.588,0,0,1,.223-3.464c.5-3.622,2.467-5.839,5.695-6.416a7.243,7.243,0,0,1,3.1,0c.866.223,1.312,0,1.548-.905.3-1.063.722-2.073,1.089-3.11s.276-1.168-.814-1.417C247.948,97.011,244.235,97.483,240.994,100.79Z" transform="translate(-1 -1.03)" fill="#fff"/>
      <path id="Path_68" data-name="Path 68" d="M77.184,91.915v3.936c0,.328,0,.656-.459.735a22.884,22.884,0,0,1-8.45.354c-2.624-.564-3.936-1.929-3.936-4.356a4.632,4.632,0,0,1,3.5-5.052,16.035,16.035,0,0,1,6.167-.433c.853,0,1.693.21,2.546.276.485,0,.6.249.59.7C77.171,89.343,77.184,90.629,77.184,91.915Z" transform="translate(18.761 25.808)" fill="#fff"/>
      <path id="Path_69" data-name="Path 69" d="M105.233,85.816h-6c-1.1,0-1.1,0-.866-1.115a9.185,9.185,0,0,1,2.008-4.356,6.758,6.758,0,0,1,6.981-1.85,6.115,6.115,0,0,1,4.579,4.868c.171.617.21,1.312.328,1.89s-.092.59-.577.59h-6.416Z" transform="translate(29.356 23.063)" fill="#fff"/>
      <path id="Path_70" data-name="Path 70" d="M225.9,85.811h-6.4c-.577,0-.761-.131-.617-.722a13.724,13.724,0,0,1,.84-2.795,6.561,6.561,0,0,1,7.007-4.028,6.377,6.377,0,0,1,5.918,5.55c.394,1.981.394,1.981-1.614,1.981Z" transform="translate(66.999 23.069)" fill="#fff"/>
      <path id="Path_71" data-name="Path 71" d="M158.542,88.977a17.334,17.334,0,0,1,.853-5.852,6.705,6.705,0,0,1,7.873-4.7,6.43,6.43,0,0,1,5.564,4.986,19.171,19.171,0,0,1,0,11.455c-1.614,5.117-6.246,5.577-9.644,4.4a6.062,6.062,0,0,1-3.569-3.818,16.7,16.7,0,0,1-1.076-6.469Z" transform="translate(48.176 23.091)" fill="#fff"/>
    </g>
  </g>
</svg>
