<svg xmlns="http://www.w3.org/2000/svg" xmlns:xlink="http://www.w3.org/1999/xlink" width="364" height="250" viewBox="0 0 364 250">
  <defs>
    <clipPath id="clip-Tesla_Logo">
      <rect width="364" height="250"/>
    </clipPath>
  </defs>
  <g id="Tesla_Logo" clip-path="url(#clip-Tesla_Logo)">
    <g id="Al21Di" transform="translate(88.008 4)">
      <path id="Path_72" data-name="Path 72" d="M95.385,168.022c-.543-3.037-1.1-6.062-1.64-9.087Q89.3,134.1,84.856,109.287l-9.433-52.58L71.612,35.44c-.1-.543-.127-1.051-.958-1.039-6.443.069-12.828.1-19.143,1.478a26.8,26.8,0,0,0-3.464,1,10.726,10.726,0,0,0-7.32,9.237c-.081.554,0,1.051-.877.681C31.525,43.129,24,38.361,18.42,30.971c-.866-1.155-.854-1.155.439-1.743a164.68,164.68,0,0,1,41.45-12.135A161.422,161.422,0,0,1,76.473,15.3a2.309,2.309,0,0,1,2.217.935c5.346,6.523,10.692,12.989,15.991,19.5.647.8.935.808,1.582,0,5.346-6.581,10.738-13.1,16.107-19.628a1.7,1.7,0,0,1,1.57-.785,168.824,168.824,0,0,1,56.9,13.428c2.575,1.155,2.586,1.155.808,3.337-5.138,6.281-11.754,10.576-19.039,14.04-.7.323-1.524,1.039-2.148.774s-.393-1.351-.554-2.067a10.391,10.391,0,0,0-6.789-7.794,40.815,40.815,0,0,0-12.435-2.309c-3.406-.254-6.812-.277-10.218-.323-.82,0-1.155.185-1.3,1.051q-7.078,39.972-14.2,79.944-4.618,25.7-9.121,51.426c-.069.381-.162.762-.242,1.155Z" transform="translate(1.613 1.207)" fill="#fff"/>
      <path id="Path_73" data-name="Path 73" d="M97.1,1a232.212,232.212,0,0,1,82.08,15.633c2.609.993,2.632,1.028,1.455,3.533-1,2.1-2.124,4.157-3.129,6.258-.393.808-.75.947-1.6.577A191.235,191.235,0,0,0,140.69,15.744a214.281,214.281,0,0,0-51.934-4.353A195.127,195.127,0,0,0,16.929,27.036c-.751.323-1.062.219-1.443-.5-1.374-2.632-2.7-5.288-3.891-8-.3-.67-.3-.993.5-1.3A241.539,241.539,0,0,1,58.541,4.3,232.341,232.341,0,0,1,97.1,1Z" transform="translate(0.622 -1)" fill="#fff"/>
      <path id="Path_74" data-name="Path 74" d="M86.227,214.174H73.4c-.254,0-.589.162-.762-.127s.092-.52.254-.739c1.755-2.413,3.926-4.076,7.1-4.041H94.367c1.016,0,1.3-.3,1.224-1.27a15.345,15.345,0,0,1,0-2.725c.081-.924-.277-1.155-1.155-1.155H74.6c-.6.058-.843-.173-.843-.8V190.494c0-.785.45-.774.993-.774H99.112c1.3,0,1.443.2.716,1.293a6.72,6.72,0,0,1-5.946,3.464H79.75c-.981,0-1.489.162-1.351,1.282s-.485,2.667.277,3.464,2.194.2,3.325.2H99.112c.854,0,1.155.173,1.155,1.1v12.6c0,.831-.254,1.074-1.074,1.062H86.239Z" transform="translate(10.079 28.175)" fill="#fff"/>
      <path id="Path_75" data-name="Path 75" d="M16.3,189.77H30.422c.993,0,1.155.242.727,1.155-1.27,2.309-3.048,3.879-5.912,3.81-1.732,0-3.464.058-5.219,0-1.155,0-1.489.266-1.478,1.432V212.9c0,1.051-.266,1.432-1.316,1.3s-2.505.45-3.21-.219-.219-2.09-.231-3.187V195.959c0-.924-.254-1.247-1.155-1.224-2.009.058-4.03,0-6.05,0a6.373,6.373,0,0,1-5.531-4.168c-.266-.877.312-.7.762-.7Z" transform="translate(-0.99 28.183)" fill="#fff"/>
      <path id="Path_76" data-name="Path 76" d="M152.929,198.163h12.227c.75,0,1.016.185,1.016.981v12.7c0,.75-.173,1.155-.981,1.016-1.212-.115-2.748.508-3.533-.277s-.173-2.182-.2-3.325V204.04c0-.762-.185-1.039-.993-1.039h-15.31c-.739,0-.947.266-.935.97v7.84c0,.843-.266,1.155-1.085,1.062a21.459,21.459,0,0,0-2.725,0c-.75,0-.924-.266-.924-.97V199.087c0-.866.358-.947,1.051-.947h12.354Z" transform="translate(20.423 29.477)" fill="#fff"/>
      <path id="Path_77" data-name="Path 77" d="M108.27,201.921V190.872c0-.8.173-1.155,1.039-1.074,1.155.1,2.69-.485,3.464.208s.242,2.24.254,3.464v14.606c0,1.155.358,1.42,1.466,1.409h18.531c1.293,0,1.351,0,.774,1.155-1.155,2.228-2.7,3.637-5.461,3.591-6.293-.1-12.585,0-18.878,0-.866,0-1.155-.2-1.155-1.155C108.3,209.357,108.27,205.639,108.27,201.921Z" transform="translate(15.596 28.166)" fill="#fff"/>
      <path id="Path_78" data-name="Path 78" d="M51.518,206.664H64.345c1.155,0,1.27.1.7,1.155a6.131,6.131,0,0,1-5.773,3.729c-5.2-.069-10.391,0-15.564,0-2.817,0-4.549-1.489-5.773-3.822-.416-.8-.277-1.155.693-1.085C42.881,206.687,47.2,206.664,51.518,206.664Z" transform="translate(4.689 30.79)" fill="#fff"/>
      <path id="Path_79" data-name="Path 79" d="M152.927,189.77h12.828c1.074,0,1.155.335.7,1.155a6.119,6.119,0,0,1-5.773,3.752c-5.311-.058-10.611,0-15.922,0a6.3,6.3,0,0,1-5.634-4.2c-.289-.935.381-.658.762-.658Z" transform="translate(20.356 28.183)" fill="#fff"/>
      <path id="Path_80" data-name="Path 80" d="M51.542,189.751H64.358c1.155,0,1.155.369.7,1.155a6.166,6.166,0,0,1-5.773,3.718h-16a6.373,6.373,0,0,1-5.519-4.191c-.242-.866.358-.67.785-.67Z" transform="translate(4.688 28.179)" fill="#fff"/>
      <path id="Path_81" data-name="Path 81" d="M51.687,198.12h12.7c1,0,1.155.242.7,1.155a6.189,6.189,0,0,1-5.912,3.764c-5.346-.081-10.68,0-16.026,0a6.281,6.281,0,0,1-5.427-4.133c-.242-.866.358-.681.8-.681Z" transform="translate(4.682 29.474)" fill="#fff"/>
    </g>
  </g>
</svg>
