<svg xmlns="http://www.w3.org/2000/svg" xmlns:xlink="http://www.w3.org/1999/xlink" width="50" height="50" viewBox="0 0 50 50">
  <defs>
    <clipPath id="clip-twitter">
      <rect width="50" height="50"/>
    </clipPath>
  </defs>
  <g id="twitter" clip-path="url(#clip-twitter)">
    <path id="Icon_awesome-twitter" data-name="Icon awesome-twitter" d="M37.431,11.825c.026.371.026.741.026,1.112,0,11.3-8.6,24.328-24.328,24.328A24.163,24.163,0,0,1,0,33.426a17.688,17.688,0,0,0,2.065.106A17.124,17.124,0,0,0,12.68,29.879a8.565,8.565,0,0,1-7.995-5.93,10.783,10.783,0,0,0,1.615.132,9.043,9.043,0,0,0,2.25-.291A8.552,8.552,0,0,1,1.694,15.4v-.106a8.611,8.611,0,0,0,3.865,1.085A8.563,8.563,0,0,1,2.912,4.943a24.3,24.3,0,0,0,17.63,8.947,9.652,9.652,0,0,1-.212-1.959,8.559,8.559,0,0,1,14.8-5.85,16.834,16.834,0,0,0,5.427-2.065A8.527,8.527,0,0,1,36.8,8.728,17.141,17.141,0,0,0,41.719,7.4a18.38,18.38,0,0,1-4.288,4.421Z" transform="translate(4 4.619)" fill="#fff"/>
  </g>
</svg>
